<svg width="729" height="482" viewBox="0 0 729 482" fill="none" xmlns="http://www.w3.org/2000/svg">
<path d="M379.967 99.3704C412.432 99.3704 600.735 117.894 645.006 136.991C659.763 148.449 603.783 170.666 601.324 171.94L582.877 198.676C458.671 201.222 205.832 204.023 188.124 194.856C165.988 183.398 165.988 160.481 165.988 152.842C165.988 145.204 92.067 147.843 114.203 132.565C136.338 117.287 339.384 99.3704 379.967 99.3704Z" fill="#7C4C85" stroke="#150D17" stroke-width="2"/>
<path d="M57.2861 196.188C90.0883 137.908 116.258 120.364 134.687 135.529C153.115 150.694 186.287 154.485 219.459 158.276C252.428 162.044 466.404 162.067 547.49 158.276C595.405 156.036 621.205 127.946 658.062 139.32C696.841 151.286 709.663 211.353 724.406 321.298C739.149 431.244 687.548 453.991 658.062 465.365C625.505 477.923 278.429 484.321 186.286 476.739C97.8039 469.457 2 431.244 2 381.958C2 345.991 16.7438 268.221 57.2861 196.188Z" fill="#A16DAC" stroke="#150D17" stroke-width="3"/>
<path d="M348.757 39.6057C381.954 35.4824 413.193 32.6608 444.665 43.3464C466.797 50.8609 501.471 73.4047 536.881 103.462C559.013 122.249 577.456 148.549 577.456 167.335C577.456 182.363 584.832 182.363 599.585 182.363H599.588C615.885 182.364 615.431 171.343 614.342 163.578C610.654 137.278 598.567 114.419 577.456 88.4328C547.524 51.5889 511.06 34.2217 488.929 24.5603C463.108 13.2886 420.791 2.69448 374.581 2.01693C344.958 1.5826 300.804 9.54719 267.607 20.8194C233.35 32.4517 194.59 58.2497 168.016 88.4328C144.221 115.46 130.927 147.188 127.442 156.063C120.065 174.849 120.065 182.363 138.508 186.121C156.951 189.878 158.84 187.772 160.64 178.606C162.439 169.441 182.186 127.528 201.215 107.219C222.491 84.5122 247.205 71.0673 267.606 62.1491C293.431 50.8606 322.587 42.8561 348.757 39.6057Z" fill="#D7C1DC" stroke="#150D17" stroke-width="3"/>
<path d="M183.25 246.426C240.103 246.426 285.821 283.813 285.821 329.519C285.821 375.225 240.103 412.611 183.25 412.611C126.397 412.611 80.6788 375.225 80.6787 329.519C80.6787 283.813 126.397 246.426 183.25 246.426Z" fill="#D7C1DC" stroke="#150D17" stroke-width="2"/>
<path d="M571.643 255.278C621.385 255.278 661.267 286.75 661.268 325.092C661.268 363.434 621.385 394.908 571.643 394.908C521.9 394.908 482.018 363.434 482.018 325.092C482.018 286.75 521.901 255.278 571.643 255.278Z" fill="#D7C1DC" stroke="#150D17" stroke-width="2"/>
<path d="M459.713 342.763C459.632 368.922 456.284 381.095 466.513 403.759H303.229C297.226 391.1 295.647 380.275 296.805 369.458C297.964 358.625 301.868 347.757 306.939 334.98L459.713 342.763Z" fill="#F5F8FF" stroke="#150D17" stroke-width="2"/>
<path d="M544.496 206.796L545.046 207.305L545.064 207.286C545.073 207.275 545.086 207.261 545.102 207.243C545.134 207.206 545.177 207.154 545.232 207.086C545.342 206.952 545.494 206.756 545.673 206.498C546.031 205.984 546.499 205.223 546.959 204.22C547.881 202.211 548.769 199.234 548.678 195.319C548.588 191.418 547.55 187.567 546.548 184.711C546.046 183.279 545.548 182.087 545.176 181.251C544.99 180.833 544.835 180.503 544.726 180.277C544.671 180.164 544.627 180.077 544.598 180.018C544.583 179.988 544.572 179.965 544.564 179.949C544.56 179.941 544.556 179.935 544.554 179.931C544.553 179.929 544.552 179.927 544.551 179.926L544.55 179.924L544.55 179.923L544.303 179.445L543.771 179.527L543.87 180.181C543.771 179.534 543.77 179.527 543.77 179.527L543.768 179.527C543.766 179.527 543.763 179.528 543.76 179.528C543.753 179.529 543.744 179.531 543.731 179.533C543.704 179.537 543.664 179.543 543.612 179.551C543.507 179.567 543.351 179.592 543.147 179.623C542.738 179.686 542.136 179.777 541.361 179.895C539.812 180.131 537.574 180.469 534.82 180.879C529.311 181.701 521.734 182.813 513.465 183.974C496.917 186.296 477.627 188.81 466.569 189.59C444.422 191.153 385.329 191.153 370.384 191.314C355.477 191.475 317.006 191.345 285.36 189.59C265.926 188.511 248.341 187.043 235.614 185.845C229.251 185.246 224.102 184.714 220.546 184.332C218.767 184.141 217.387 183.987 216.451 183.882C215.984 183.829 215.627 183.789 215.387 183.761C215.268 183.747 215.177 183.737 215.116 183.729C215.086 183.726 215.064 183.723 215.049 183.721C215.041 183.72 215.035 183.72 215.031 183.72C215.029 183.72 215.028 183.719 215.027 183.719L215.026 183.719L214.648 183.674L214.388 183.953L214.388 183.954L214.387 183.955C214.386 183.956 214.384 183.957 214.383 183.958C214.381 183.961 214.377 183.965 214.373 183.969C214.365 183.978 214.353 183.991 214.338 184.007C214.308 184.041 214.265 184.089 214.21 184.153C214.099 184.28 213.938 184.468 213.736 184.716C213.332 185.214 212.76 185.954 212.078 186.934C210.713 188.895 208.908 191.82 207.128 195.699C205.301 199.679 205.341 202.7 205.896 204.767C206.172 205.793 206.568 206.566 206.904 207.089C207.072 207.35 207.224 207.549 207.339 207.687C207.396 207.756 207.444 207.809 207.479 207.848C207.497 207.867 207.512 207.882 207.523 207.894C207.529 207.899 207.534 207.904 207.538 207.908C207.54 207.91 207.542 207.912 207.543 207.914L207.546 207.916L208.071 207.381M544.496 206.796L544.577 207.541C544.577 207.541 544.576 207.541 544.575 207.541L544.526 207.547C544.491 207.551 544.439 207.556 544.371 207.564C544.234 207.578 544.03 207.6 543.76 207.629C543.219 207.687 542.414 207.772 541.355 207.879C539.237 208.094 536.106 208.401 532.049 208.769C523.934 209.506 512.114 210.488 497.291 211.47C467.645 213.434 425.983 215.397 377.914 215.397C329.846 215.397 287.371 213.58 256.911 211.762C241.681 210.854 229.454 209.945 221.034 209.263C216.825 208.922 213.567 208.639 211.36 208.44C210.257 208.341 209.417 208.262 208.852 208.209C208.57 208.182 208.356 208.162 208.213 208.148C208.142 208.141 208.088 208.136 208.052 208.133C208.034 208.131 208.02 208.13 208.011 208.129C208.007 208.128 208.003 208.127 208.001 208.127L207.999 208.127L208.071 207.381M544.496 206.796L544.578 207.541L544.855 207.51L545.045 207.306L544.496 206.796ZM208.071 207.381L207.547 207.917L207.735 208.101L207.998 208.127L208.071 207.381Z" fill="#DBE7FF" stroke="#000F2E" stroke-width="1.5"/>
<path d="M368.815 117.824C397.391 117.824 423.245 119.557 441.94 122.353C451.294 123.752 458.824 125.412 463.998 127.242C466.59 128.159 468.546 129.103 469.84 130.049C471.155 131.01 471.637 131.859 471.637 132.565C471.637 133.271 471.155 134.12 469.84 135.081C468.546 136.027 466.59 136.971 463.998 137.888C458.824 139.717 451.294 141.377 441.94 142.776C423.245 145.572 397.391 147.306 368.815 147.306C340.24 147.306 314.386 145.573 295.69 142.776C286.337 141.377 278.808 139.717 273.634 137.888C271.042 136.971 269.085 136.027 267.791 135.081C266.476 134.12 265.994 133.271 265.994 132.565C265.994 131.859 266.476 131.01 267.791 130.049C269.085 129.103 271.042 128.159 273.634 127.242C278.808 125.412 286.337 123.752 295.69 122.353C314.386 119.557 340.24 117.824 368.815 117.824Z" fill="#DBE7FF" stroke="#000F2E" stroke-width="1.5"/>
<ellipse cx="168.146" cy="331.731" rx="15.1042" ry="11.0648" fill="#000F2E"/>
<ellipse cx="582.431" cy="331.731" rx="15.1042" ry="11.0648" fill="#000F2E"/>
<path d="M377.446 338.813C377.446 338.813 373.131 350.172 373.131 369.843C373.131 389.513 377.446 402.546 377.446 402.546" stroke="black" stroke-width="2" stroke-linecap="round"/>
<path d="M278.191 189.305C273.876 191.518 270.051 195.86 268.617 199.27C264.103 209.999 265.244 212.143 265.244 212.143" stroke="#000F2E" stroke-linecap="round"/>
<path d="M353.711 191.651C351.566 197.745 350.524 199.212 349.395 205.593C348.727 209.37 349.396 214.445 349.396 214.445" stroke="#000F2E" stroke-linecap="round"/>
<path d="M416.286 191.43C416.286 191.43 418.444 199.255 418.444 203.38C418.444 207.806 416.286 214.444 416.286 214.444" stroke="#000F2E" stroke-linecap="round"/>
<path d="M483.176 188.553C483.176 188.553 487.491 196.741 487.491 201.167C487.491 205.592 485.334 211.789 485.334 211.789" stroke="#000F2E" stroke-linecap="round"/>
<path d="M316.53 207.304L304.582 207.305L304.583 197.24L316.529 197.24L316.53 207.304Z" fill="#F5F8FF" stroke="#001F5C"/>
<path d="M510.445 202.669L507.64 193.139L519.69 194.607L510.445 202.669Z" fill="#F5F8FF" stroke="#001F5C"/>
<path d="M438.968 208.181L438.416 198.992L449.72 202.982L438.968 208.181Z" fill="#F5F8FF" stroke="#001F5C"/>
<path d="M394.182 208.181L394.734 198.992L383.429 202.982L394.182 208.181Z" fill="#F5F8FF" stroke="#001F5C"/>
<path d="M451.914 208.181L451.362 198.992L462.666 202.982L451.914 208.181Z" fill="#F5F8FF" stroke="#001F5C"/>
<path d="M381.235 208.181L381.786 198.992L370.482 202.982L381.235 208.181Z" fill="#F5F8FF" stroke="#001F5C"/>
<path d="M234.56 205.542L231.287 205.019L233.144 192.372L236.401 192.373L234.56 205.542Z" fill="#F5F8FF" stroke="#001F5C"/>
<path d="M241.093 205.864L237.764 205.197L239.776 192.815L243.084 192.815L241.093 205.864Z" fill="#F5F8FF" stroke="#001F5C"/>
</svg>
